<?xml version="1.0" encoding="utf-8"?>
<!-- Generator: Adobe Illustrator 24.1.0, SVG Export Plug-In . SVG Version: 6.00 Build 0)  -->
<svg version="1.1" id="Layer_1" xmlns="http://www.w3.org/2000/svg" xmlns:xlink="http://www.w3.org/1999/xlink" x="0px" y="0px"
	 viewBox="0 0 24 24" style="enable-background:new 0 0 24 24;" xml:space="preserve">
<style type="text/css">
	.st0{fill:#FFFFFF;}
</style>
<path class="st0" d="M17,13.8c-0.4,1.1-1.6,3.2-2.8,3.2c-0.8,0-1.1-0.5-2-0.5S11,17,10.3,17C9,17,7,14.1,7,11.5
	c-0.2-1.8,1.2-3.4,3-3.6c0,0,0.1,0,0.1,0c0.8,0,1.5,0.5,2,0.5s1.4-0.6,2.3-0.6c0.9,0,1.7,0.5,2.2,1.2c-1.2,0.8-1.6,2.4-0.9,3.6
	C16,13.2,16.5,13.6,17,13.8z M14.4,5C13,5.1,11.9,6.4,12,7.8C13.4,7.7,14.5,6.5,14.4,5C14.4,5.1,14.4,5,14.4,5z"/>
</svg>
