<svg id="Layer_1" data-name="Layer 1" xmlns="http://www.w3.org/2000/svg" viewBox="0 0 24 24"><defs><style>.cls-1{fill:#fff;}</style></defs><title>Artboard 1</title><path class="cls-1" d="M12,2A10,10,0,1,1,2,12,10,10,0,0,1,12,2Zm0-2A12,12,0,1,0,24,12,12,12,0,0,0,12,0Zm5,13.8C16.61,14.94,15.43,17,14.22,17c-.81,0-1.06-.47-2-.47S11,17,10.27,17C9,17.05,7,14.09,7,11.5a3.29,3.29,0,0,1,3.1-3.57c.77,0,1.51.52,2,.52s1.36-.64,2.3-.55a2.81,2.81,0,0,1,2.19,1.19A2.65,2.65,0,0,0,17,13.8ZM14.39,5A2.67,2.67,0,0,0,12,7.77,2.54,2.54,0,0,0,14.39,5Z"/></svg>