<?xml version="1.0" encoding="utf-8"?>
<!-- Generator: Adobe Illustrator 24.1.0, SVG Export Plug-In . SVG Version: 6.00 Build 0)  -->
<svg version="1.1" id="Layer_1" xmlns="http://www.w3.org/2000/svg" xmlns:xlink="http://www.w3.org/1999/xlink" x="0px" y="0px"
	 viewBox="0 0 24 24" style="enable-background:new 0 0 24 24;" xml:space="preserve">
<style type="text/css">
	.st0{fill:#FFFFFF;}
</style>
<path class="st0" d="M9.3,15H8.8v-4.4c0.2-0.1,0.3-0.2,0.5-0.3V15z M10.9,15h0.5v-5c-0.1,0.1-0.2,0.3-0.3,0.5l-0.2-0.1V15z M9.8,15
	h0.6v-4.8c-0.2,0-0.4,0-0.6,0V15z M7.7,15h0.5v-3.8C8,11.4,7.9,11.7,7.8,12l-0.2-0.1V15z M6,12.1c-0.7,0.6-0.7,1.7-0.1,2.4
	c0,0,0.1,0.1,0.1,0.1V12.1z M16.2,11.8C16.2,10.3,15,9.1,13.5,9C13,9,12.4,9.2,12,9.5V15h4.9c0.9,0,1.6-0.8,1.6-1.7
	c0.1-0.9-0.6-1.6-1.5-1.7C16.8,11.6,16.5,11.7,16.2,11.8L16.2,11.8z M7.1,11.8c-0.2,0-0.4,0-0.6,0.1v3.1C6.7,15,6.9,15,7.1,15V11.8z
	"/>
</svg>
