<svg id="Layer_1" data-name="Layer 1" xmlns="http://www.w3.org/2000/svg" viewBox="0 0 24 24"><defs><style>.cls-1{fill:#fff;}</style></defs><title>soundcloud_white</title><path class="cls-1" d="M12,2A10,10,0,1,1,2,12,10,10,0,0,1,12,2Zm0-2A12,12,0,1,0,24,12,12,12,0,0,0,12,0ZM9.29,15H8.75V10.6a2.43,2.43,0,0,1,.54-.31Zm1.63,0h.54V10a2.69,2.69,0,0,0-.34.47l-.2-.1ZM9.83,15h.55V10.17a1.68,1.68,0,0,0-.55,0ZM7.67,15h.54V11.17a2.67,2.67,0,0,0-.38.84l-.16-.1ZM6,12.14a1.68,1.68,0,0,0,0,2.47Zm10.23-.37A2.87,2.87,0,0,0,13.5,9a2.6,2.6,0,0,0-1.5.48V15h4.92a1.64,1.64,0,0,0,1.58-1.69A1.58,1.58,0,0,0,16.27,11.77Zm-9.14,0a1.13,1.13,0,0,0-.55.06v3.1a1.43,1.43,0,0,0,.55.08Z"/></svg>