<?xml version="1.0" encoding="utf-8"?>
<!-- Generator: Adobe Illustrator 24.1.0, SVG Export Plug-In . SVG Version: 6.00 Build 0)  -->
<svg version="1.1" id="Layer_1" xmlns="http://www.w3.org/2000/svg" xmlns:xlink="http://www.w3.org/1999/xlink" x="0px" y="0px"
	 viewBox="0 0 24 24" style="enable-background:new 0 0 24 24;" xml:space="preserve">
<style type="text/css">
	.st0{fill-rule:evenodd;clip-rule:evenodd;fill:#FFFFFF;}
</style>
<path class="st0" d="M15.2,15.1c-0.1,0.2-0.4,0.3-0.6,0.1c0,0,0,0,0,0c-1.9-1-4.1-1.3-6.2-0.7c-0.2,0-0.5-0.1-0.5-0.3
	C7.9,14,8,13.8,8.2,13.7c0,0,0,0,0,0c2.3-0.7,4.7-0.4,6.8,0.8C15.3,14.6,15.3,14.9,15.2,15.1C15.2,15.1,15.2,15.1,15.2,15.1z
	 M16.1,13.2c-0.2,0.3-0.5,0.3-0.7,0.2c0,0,0,0,0,0c-2.1-1.2-4.7-1.5-7-0.8c-0.3,0.1-0.6-0.1-0.7-0.4c0,0,0,0,0,0
	c-0.1-0.3,0.1-0.6,0.4-0.7c2.6-0.8,5.5-0.4,7.9,0.9C16.1,12.6,16.2,12.9,16.1,13.2z M16.1,11.2c-2.5-1.2-5.4-1.5-8.1-0.8
	c-0.4,0.1-0.7-0.1-0.8-0.5C7.1,9.6,7.3,9.3,7.6,9.1c3.1-0.8,6.3-0.5,9.2,0.9c0.3,0.2,0.5,0.5,0.3,0.9c-0.2,0.3-0.5,0.5-0.9,0.3
	C16.2,11.3,16.2,11.2,16.1,11.2L16.1,11.2z"/>
</svg>
