<svg id="Layer_1" data-name="Layer 1" xmlns="http://www.w3.org/2000/svg" viewBox="0 0 24 24"><defs><style>.cls-1{fill:#fff;fill-rule:evenodd;}</style></defs><title>spotify_white</title><path class="cls-1" d="M12,0A12,12,0,1,0,24,12,12,12,0,0,0,12,0Zm0,2A10,10,0,1,1,2,12,10,10,0,0,1,12,2Zm0,3a7,7,0,1,0,7,7A7,7,0,0,0,12,5Zm3.21,10.1a.43.43,0,0,1-.6.14,8.06,8.06,0,0,0-6.15-.67.44.44,0,0,1-.52-.33.42.42,0,0,1,.33-.52,8.88,8.88,0,0,1,6.8.78A.43.43,0,0,1,15.21,15.1Zm.86-1.91a.54.54,0,0,1-.75.18,9.21,9.21,0,0,0-7-.82.54.54,0,0,1-.68-.36A.55.55,0,0,1,8,11.51a10.22,10.22,0,0,1,7.87.93A.55.55,0,0,1,16.07,13.19Zm.07-2A11.6,11.6,0,0,0,8,10.4a.66.66,0,0,1-.38-1.26,13,13,0,0,1,9.18.94.66.66,0,1,1-.67,1.13Z"/></svg>