<?xml version="1.0" encoding="utf-8"?>
<!-- Generator: Adobe Illustrator 24.1.0, SVG Export Plug-In . SVG Version: 6.00 Build 0)  -->
<svg version="1.1" id="Layer_1" xmlns="http://www.w3.org/2000/svg" xmlns:xlink="http://www.w3.org/1999/xlink" x="0px" y="0px"
	 viewBox="0 0 24 24" style="enable-background:new 0 0 24 24;" xml:space="preserve">
<style type="text/css">
	.st0{fill:#FFFFFF;}
</style>
<path class="st0" d="M18.5,8.8c-0.4,0.2-0.9,0.3-1.4,0.4c0.5-0.3,0.9-0.8,1.1-1.4c-0.5,0.3-1,0.5-1.6,0.6c-0.9-1-2.5-1-3.5-0.1
	c-0.6,0.6-0.9,1.5-0.7,2.3c-2-0.1-3.8-1-5.1-2.6C6.7,9.2,7,10.6,8.1,11.4c-0.4,0-0.8-0.1-1.1-0.3c0,1.2,0.8,2.2,2,2.4
	c-0.4,0.1-0.7,0.1-1.1,0c0.3,1,1.2,1.7,2.3,1.7c-1,0.8-2.3,1.2-3.7,1c3.3,2.1,7.6,1.1,9.7-2.1c0.8-1.2,1.2-2.7,1.1-4.1
	C17.8,9.7,18.2,9.2,18.5,8.8z"/>
</svg>
