<svg id="Layer_1" data-name="Layer 1" xmlns="http://www.w3.org/2000/svg" viewBox="0 0 24 24"><defs><style>.cls-1{fill:#fff;}</style></defs><title>twitter_white</title><path class="cls-1" d="M12,2A10,10,0,1,1,2,12,10,10,0,0,1,12,2Zm0-2A12,12,0,1,0,24,12,12,12,0,0,0,12,0Zm6.5,8.78a5.17,5.17,0,0,1-1.41.39A2.5,2.5,0,0,0,18.17,7.8a4.77,4.77,0,0,1-1.56.6,2.47,2.47,0,0,0-4.2,2.25A7,7,0,0,1,7.34,8.07a2.46,2.46,0,0,0,.76,3.29A2.41,2.41,0,0,1,7,11.05,2.49,2.49,0,0,0,9,13.5a2.58,2.58,0,0,1-1.11,0,2.46,2.46,0,0,0,2.3,1.71,5,5,0,0,1-3.65,1,7,7,0,0,0,10.77-6.22A5,5,0,0,0,18.5,8.78Z"/></svg>