<?xml version="1.0" encoding="utf-8"?>
<!-- Generator: Adobe Illustrator 24.0.1, SVG Export Plug-In . SVG Version: 6.00 Build 0)  -->
<svg version="1.1" id="Layer_1" xmlns="http://www.w3.org/2000/svg" xmlns:xlink="http://www.w3.org/1999/xlink" x="0px" y="0px"
	 viewBox="0 0 125 40" style="enable-background:new 0 0 125 40;" xml:space="preserve">
<style type="text/css">
	.st0{fill:#343433;}
	.st1{clip-path:url(#SVGID_2_);fill:url(#SVGID_3_);}
	.st2{fill:#FFFFFF;}
	.st3{fill:#24CF5F;}
</style>
<g id="Layer_1_1_">
</g>
<g id="Layer_2_1_">
</g>
<g id="Layer_3">
</g>
<g id="Layer_4_1_">
	<g>
		<path class="st0" d="M45.2,18.9c0-1,0.4-1.8,1.3-2.3c-0.5-0.7-1.2-1.1-2.2-1.2c-0.3,0-0.8,0-1.3,0.2c-0.6,0.2-0.9,0.3-0.9,0.3
			c-0.1,0-0.5-0.1-0.9-0.3s-0.8-0.3-1.1-0.3c-0.5,0-0.9,0.1-1.4,0.4s-0.8,0.6-1,1.1c-0.3,0.6-0.5,1.3-0.5,2.1c0,0.7,0.1,1.4,0.4,2.2
			c0.2,0.7,0.5,1.3,0.9,1.8c0.3,0.5,0.6,0.8,0.8,1c0.4,0.4,0.7,0.5,1,0.5c0.2,0,0.5-0.1,0.9-0.3c0.4-0.1,0.7-0.2,1-0.2
			c0.3,0,0.6,0.1,1,0.2c0.4,0.2,0.7,0.2,0.9,0.2c0.4,0,0.7-0.2,1-0.5c0.1-0.1,0.2-0.2,0.4-0.4c0.1-0.2,0.3-0.4,0.4-0.6
			c0.1-0.2,0.2-0.4,0.3-0.5s0.2-0.4,0.3-0.6c0-0.1,0.1-0.2,0.1-0.3c0-0.1,0-0.2,0.1-0.3c-0.3-0.1-0.5-0.3-0.8-0.5
			C45.5,20.3,45.2,19.6,45.2,18.9z"/>
		<polygon class="st0" points="53.7,21.1 53.7,21.1 51.3,15.5 49.4,15.5 49.4,24.4 51,24.4 51,18.7 51.1,18.7 53.1,23.3 54.2,23.3 
			56.2,18.7 56.3,18.7 56.3,24.4 57.9,24.4 57.9,15.5 56.1,15.5 		"/>
		<path class="st0" d="M43.8,14.4c0.4-0.5,0.6-1.1,0.6-1.7c0,0,0-0.1,0-0.1s0-0.1,0-0.1c-0.3,0-0.6,0.1-0.9,0.3
			c-0.4,0.2-0.6,0.4-0.9,0.7C42.2,13.9,42,14.4,42,15c0,0,0,0.1,0,0.1c0,0,0,0.1,0,0.1C42.7,15.3,43.3,15,43.8,14.4z"/>
		<rect x="77" y="15.5" class="st0" width="1.8" height="8.9"/>
		<path class="st0" d="M84.3,17c1.1,0,1.7,0.9,1.7,1.8h1.8v-0.2c0-1.7-1.3-3.2-3.4-3.2c-2.3,0-3.6,1.5-3.6,4.1v1
			c0,2.6,1.3,4.1,3.6,4.1c2.2,0,3.4-1.4,3.4-3.1v-0.2H86c0,0.9-0.5,1.7-1.7,1.7s-1.8-0.8-1.8-2.5v-1C82.5,17.8,83.2,17,84.3,17z"/>
		<path class="st0" d="M65,21.2c0,1.2-0.7,1.8-1.7,1.8c-1,0-1.7-0.6-1.7-1.8v-5.6h-1.8v5.9c0,1.9,1.3,3.2,3.5,3.2
			c2.2,0,3.5-1.3,3.5-3.2v-5.9H65V21.2z"/>
		<path class="st0" d="M72.8,19.3l-1.3-0.3c-0.8-0.2-1.2-0.5-1.2-1c0-0.7,0.5-1.1,1.4-1.1c1,0,1.5,0.6,1.5,1.2H75
			c0-1.6-1.3-2.7-3.2-2.7c-1.8,0-3.2,1-3.2,2.7c0,1.5,1,2.2,2.2,2.5l1.3,0.3c0.9,0.2,1.3,0.5,1.3,1.1c0,0.7-0.5,1.2-1.6,1.2
			c-1.1,0-1.7-0.6-1.7-1.3h-1.8c0,1.3,0.9,2.7,3.4,2.7c2.1,0,3.5-1.1,3.5-2.8C75.1,20.2,74.1,19.5,72.8,19.3z"/>
	</g>
</g>
<g>
	<g>
		<defs>
			<path id="SVGID_1_" d="M1.1,101.4l-0.2,1.8l0.2,1.8c0,0.1,0.1,0.1,0.1,0.1c0.1,0,0.1-0.1,0.1-0.1l0.3-1.8l-0.3-1.8
				C1.3,101.3,1.2,101.3,1.1,101.4C1.2,101.3,1.1,101.3,1.1,101.4 M2.3,100.3L2,103.2l0.3,2.9c0,0.1,0.1,0.1,0.1,0.1
				c0.1,0,0.1-0.1,0.1-0.1l0.4-2.9l-0.4-2.9C2.5,100.2,2.4,100.2,2.3,100.3L2.3,100.3L2.3,100.3 M6,100l-0.2,3.3l0.2,3.5
				c0,0.1,0.1,0.2,0.2,0.2s0.2-0.1,0.2-0.2l0.4-3.5L6.5,100c0-0.1-0.1-0.2-0.2-0.2C6.1,99.8,6,99.9,6,100 M3.5,99.8l-0.3,3.5
				l0.3,3.3c0,0.1,0.1,0.2,0.2,0.2c0,0,0.1-0.1,0.1-0.2l0.3-3.3l-0.3-3.5c0-0.1-0.1-0.2-0.2-0.2C3.6,99.7,3.5,99.7,3.5,99.8
				 M4.7,99.7l-0.3,3.6l0.3,3.4c0,0.1,0.1,0.2,0.2,0.2s0.2-0.1,0.2-0.2l0.3-3.4l-0.3-3.6c0-0.1-0.1-0.2-0.2-0.2S4.8,99.6,4.7,99.7
				 M7.3,97.9L7,103.2l0.3,3.5c0,0.1,0.1,0.2,0.2,0.2c0.2,0,0.3-0.1,0.3-0.2l0.3-3.5l-0.3-5.3c0-0.1-0.1-0.2-0.2-0.2
				C7.4,97.7,7.3,97.8,7.3,97.9 M8.6,96.7l-0.2,6.5l0.2,3.5c0,0.2,0.1,0.3,0.3,0.3c0.1,0,0.3-0.1,0.3-0.3l0.3-3.5l-0.3-6.5
				c0-0.2-0.1-0.3-0.3-0.3C8.7,96.4,8.6,96.5,8.6,96.7 M69.7,96.3v3.8v2c-0.1-0.2-0.4-0.7-0.6-1l-3.2-4.8h-1.7v9H66v-4v-2
				c0.1,0.2,0.4,0.7,0.6,1l3.3,5h1.6v-9H69.7z M75.6,98.1h1c1.9,0,2.7,0.9,2.7,2.8c0,1.7-0.9,2.8-2.8,2.8h-0.9
				C75.6,103.6,75.6,98.1,75.6,98.1z M73.8,105.3h2.7c2.3,0,4.7-1.3,4.7-4.5c0-3.3-1.9-4.5-4.5-4.5h-2.9v-0.1
				C73.8,96.3,73.8,105.3,73.8,105.3z M91.6,96.3v9H97v-1.8h-3.6v-7.2H91.6z M118.7,98.1h1c1.9,0,2.7,0.9,2.7,2.8
				c0,1.7-0.9,2.8-2.8,2.8h-0.9V98.1z M116.9,105.3h2.7c2,0,4.1-1,4.6-3.4v-2.3c-0.4-2.4-2.1-3.3-4.4-3.3h-2.9v-0.1
				C116.9,96.3,116.9,105.3,116.9,105.3z M37,98.9c0,1.8,1.2,2.3,2.8,2.7c1.7,0.4,2,0.6,2,1.2c0,0.7-0.5,1-1.6,1
				c-0.9,0-1.7-0.3-2.3-1l-1.3,1.2c0.7,1,2,1.7,3.5,1.7c2.5,0,3.6-1.2,3.6-2.9c0-2-1.6-2.5-3-2.8c-1.4-0.3-1.8-0.5-1.8-1.1
				c0-0.4,0.3-0.8,1.3-0.8c0.8,0,1.5,0.3,2.1,0.9l1.3-1.3c-0.9-0.9-1.9-1.4-3.3-1.4c-0.1,0-0.2,0-0.3,0C38.3,96.3,37,97.3,37,98.9
				 M46.9,100.8c0-1.6,0.6-2.9,2.1-2.9c1.5,0,2.1,1.3,2.1,2.9s-0.6,2.9-2.1,2.9C47.5,103.7,46.9,102.4,46.9,100.8 M45,100.8
				c0,2.8,1.5,4.7,3.9,4.7c2.5,0,4-1.9,4-4.7c0-2.8-1.5-4.7-4-4.7C46.5,96.2,45,98.1,45,100.8 M60.2,96.2L60.2,96.2v5.1
				c0,1.5-0.7,2.4-1.9,2.4s-1.9-0.9-1.9-2.4v-5h-1.8v5c0,2.6,1.5,4.1,3.7,4.1c2.3,0,3.7-1.5,3.7-4.2v-5H60.2z M82.6,100.8
				c0,2.9,1.6,4.7,4,4.7c1.7,0,2.7-0.8,3.4-2.1l-1.5-0.9c-0.5,0.8-1,1.2-1.8,1.2c-1.4,0-2.2-1.2-2.2-2.9s0.8-2.9,2.1-2.9
				c0.8,0,1.3,0.4,1.7,1l1.7-0.8c-0.6-1.2-1.6-2-3.3-2C84.3,96.2,82.6,98.1,82.6,100.8 M99.7,100.8c0-1.6,0.6-2.9,2.1-2.9
				s2.1,1.3,2.1,2.9s-0.6,2.9-2.1,2.9S99.7,102.4,99.7,100.8 M97.8,100.8c0,2.8,1.5,4.7,3.9,4.7c2.5,0,3.9-1.9,3.9-4.7
				c0-2.8-1.5-4.7-3.9-4.7S97.8,98.1,97.8,100.8 M112.8,96.2L112.8,96.2v5.1c0,1.5-0.7,2.4-1.9,2.4c-1.2,0-1.9-0.9-1.9-2.4v-5h-1.8
				v5c0,2.6,1.5,4.1,3.7,4.1c2.3,0,3.7-1.5,3.7-4.2v-5H112.8z M13.8,96.4l-0.2,6.8l0.2,3.3c0,0.2,0.2,0.4,0.4,0.4s0.4-0.2,0.4-0.4
				l0.2-3.3l-0.2-6.9c0-0.2-0.2-0.4-0.4-0.4C13.9,96,13.8,96.1,13.8,96.4 M9.9,96.1l-0.2,7.1l0.2,3.4c0,0.2,0.1,0.3,0.3,0.3
				c0.2,0,0.3-0.1,0.3-0.3l0.2-3.4l-0.2-7.1c0-0.2-0.1-0.3-0.3-0.3C10,95.8,9.9,96,9.9,96.1 M12.5,96.1l-0.2,7.1l0.2,3.4
				c0,0.2,0.2,0.4,0.4,0.4s0.4-0.2,0.4-0.4l0.2-3.4l-0.2-7.1c0-0.2-0.2-0.4-0.4-0.4S12.5,95.9,12.5,96.1 M11.2,95.9l-0.2,7.3
				l0.2,3.4c0,0.2,0.1,0.3,0.3,0.3s0.3-0.1,0.3-0.3l0.2-3.4l-0.2-7.3c0-0.2-0.2-0.3-0.3-0.3S11.2,95.7,11.2,95.9 M15.1,95l-0.2,8.2
				l0.2,3.3c0,0.2,0.2,0.4,0.4,0.4s0.4-0.2,0.4-0.4l0.2-3.3L15.9,95c0-0.2-0.2-0.4-0.4-0.4S15.1,94.8,15.1,95 M16.5,94.3l-0.2,8.9
				l0.2,3.3c0,0.2,0.2,0.4,0.4,0.4c0.2,0,0.4-0.2,0.4-0.4l0.2-3.3l-0.2-8.9c0-0.2-0.2-0.4-0.4-0.4h-0.1
				C16.6,93.9,16.5,94.1,16.5,94.3 M18.1,93.4c-0.3,0.1-0.4,0.2-0.4,0.5v12.6c0,0.2,0.2,0.4,0.4,0.5h11c2.2,0,4-1.8,4-4s-1.8-4-4-4
				c-0.5,0-1.1,0.1-1.5,0.3c-0.3-3.6-3.3-6.3-6.9-6.3c-0.2,0-0.3,0-0.5,0C19.5,93,18.8,93.2,18.1,93.4"/>
		</defs>
		<clipPath id="SVGID_2_">
			<use xlink:href="#SVGID_1_"  style="overflow:visible;"/>
		</clipPath>
		
			<linearGradient id="SVGID_3_" gradientUnits="userSpaceOnUse" x1="-426.1645" y1="513.8826" x2="-425.1745" y2="513.8826" gradientTransform="matrix(0 62.1556 62.1556 0 -31878.1816 26545.9121)">
			<stop  offset="0" style="stop-color:#F8A01D"/>
			<stop  offset="0.7128" style="stop-color:#F26E23"/>
			<stop  offset="1" style="stop-color:#EF5826"/>
		</linearGradient>
		<rect x="0.9" y="93" class="st1" width="123.3" height="14"/>
	</g>
</g>
<g id="icons">
	<g>
		<g>
			<path class="st2" d="M44.9,64.1L44.9,64.1c0.2-0.3,0.1-0.6-0.2-0.8c-2.5-1.5-5.5-1.9-9.1-1c-0.3,0.1-0.5,0.4-0.4,0.7
				c0.1,0.3,0.4,0.5,0.7,0.4c3.3-0.7,6-0.4,8.2,0.9C44.4,64.5,44.8,64.4,44.9,64.1z"/>
			<path class="st2" d="M47.4,58.6c0.2-0.4,0.1-1-0.3-1.2c-3.5-2.1-9-2.3-12.3-1.3c-0.5,0.1-0.7,0.6-0.6,1.1
				c0.1,0.5,0.6,0.7,1.1,0.6c2.9-0.9,7.9-0.7,10.9,1.1C46.6,59.2,47.1,59,47.4,58.6z"/>
			<path class="st2" d="M45.8,60.6c-2.9-1.8-7.1-2.3-10.5-1.2c-0.4,0.1-0.6,0.5-0.5,0.9c0.1,0.4,0.5,0.6,0.9,0.5
				c3-0.9,6.8-0.5,9.3,1.1c0.3,0.2,0.7,0.1,1-0.2v0C46.4,61.2,46.2,60.8,45.8,60.6z"/>
			<path class="st3" d="M40.6,50.6L40.6,50.6c-5.2,0-9.3,4.2-9.3,9.4c0,5.2,4.2,9.4,9.4,9.4c5.2,0,9.3-4.2,9.3-9.4
				C49.9,54.8,45.8,50.6,40.6,50.6z M35.9,63.4c-0.3,0.1-0.6-0.1-0.7-0.4c-0.1-0.3,0.1-0.6,0.4-0.7c3.6-0.8,6.6-0.5,9.1,1
				c0.3,0.2,0.4,0.5,0.2,0.8l0,0c-0.2,0.3-0.5,0.4-0.8,0.2C41.9,63,39.1,62.7,35.9,63.4z M46.1,61.6L46.1,61.6
				c-0.3,0.3-0.7,0.5-1,0.2c-2.5-1.5-6.4-2-9.3-1.1c-0.4,0.1-0.8-0.1-0.9-0.5c-0.1-0.4,0.1-0.8,0.5-0.9c3.4-1,7.6-0.5,10.5,1.2
				C46.2,60.8,46.4,61.2,46.1,61.6z M46.2,58.9c-3-1.8-8-2-10.9-1.1c-0.5,0.1-1-0.1-1.1-0.6c-0.1-0.5,0.1-1,0.6-1.1
				c3.3-1,8.8-0.8,12.3,1.3c0.4,0.2,0.6,0.8,0.3,1.2C47.1,59,46.6,59.2,46.2,58.9z"/>
		</g>
		<path class="st3" d="M56.8,59.3c-1.6-0.4-1.9-0.7-1.9-1.2c0-0.5,0.5-0.9,1.3-0.9c0.7,0,1.5,0.3,2.2,0.8c0,0,0.1,0,0.1,0
			c0,0,0.1,0,0.1,0l0.8-1.1c0,0,0-0.1,0-0.1c-0.9-0.7-1.9-1.1-3.1-1.1c-1.7,0-3,1-3,2.5c0,1.6,1.1,2.2,2.9,2.6
			c1.5,0.4,1.8,0.7,1.8,1.2c0,0.6-0.5,1-1.4,1c-0.9,0-1.7-0.3-2.6-1.1c0,0-0.1,0-0.1,0c0,0-0.1,0-0.1,0L52.9,63c0,0,0,0.1,0,0.1
			c1,0.9,2.2,1.4,3.6,1.4c1.9,0,3.1-1,3.1-2.6C59.6,60.5,58.8,59.8,56.8,59.3L56.8,59.3z"/>
		<path class="st3" d="M63.8,57.7c-0.8,0-1.5,0.3-2,1v-0.7c0-0.1,0-0.1-0.1-0.1h-1.4c-0.1,0-0.1,0-0.1,0.1v8.2c0,0.1,0,0.1,0.1,0.1
			h1.4c0.1,0,0.1,0,0.1-0.1v-2.6c0.6,0.6,1.2,0.9,2,0.9c1.5,0,3-1.2,3-3.4C66.9,58.9,65.3,57.7,63.8,57.7
			C63.8,57.7,63.8,57.7,63.8,57.7z M65.2,61.1c0,1.1-0.7,1.9-1.7,1.9c-1,0-1.7-0.8-1.7-1.9c0-1.1,0.7-1.9,1.7-1.9
			C64.5,59.2,65.2,60,65.2,61.1L65.2,61.1z"/>
		<path class="st3" d="M70.8,57.7c-2,0-3.5,1.5-3.5,3.4c0,1.9,1.5,3.4,3.5,3.4c2,0,3.5-1.5,3.5-3.4C74.3,59.2,72.8,57.7,70.8,57.7
			L70.8,57.7L70.8,57.7z M70.8,63c-1,0-1.8-0.8-1.8-1.9c0-1.1,0.8-1.9,1.8-1.9c1,0,1.8,0.8,1.8,1.9C72.6,62.2,71.9,63,70.8,63
			L70.8,63z"/>
		<path class="st3" d="M78.5,57.8h-1.6v-1.6c0-0.1,0-0.1-0.1-0.1h-1.4c-0.1,0-0.1,0-0.1,0.1v1.6h-0.7c-0.1,0-0.1,0-0.1,0.1v1.2
			c0,0.1,0,0.1,0.1,0.1h0.7v3.2c0,1.3,0.6,2,1.9,2c0.5,0,0.9-0.1,1.4-0.3c0,0,0.1-0.1,0.1-0.1v-1.2c0,0,0-0.1,0-0.1c0,0-0.1,0-0.1,0
			c-0.3,0.1-0.5,0.2-0.8,0.2c-0.5,0-0.7-0.2-0.7-0.7v-3h1.6c0.1,0,0.1,0,0.1-0.1v-1.2C78.6,57.9,78.5,57.8,78.5,57.8L78.5,57.8z"/>
		<path class="st3" d="M84,57.8v-0.2c0-0.6,0.2-0.9,0.7-0.9c0.3,0,0.5,0.1,0.8,0.1c0,0,0.1,0,0.1,0c0,0,0-0.1,0-0.1v-1.2
			c0,0,0-0.1-0.1-0.1c-0.3-0.1-0.7-0.2-1.2-0.2c-1.3,0-2,0.8-2,2.2v0.3h-0.7c-0.1,0-0.1,0-0.1,0.1v1.3c0,0.1,0,0.1,0.1,0.1h0.7v5
			c0,0.1,0,0.1,0.1,0.1h1.4c0.1,0,0.1,0,0.1-0.1v-5h1.4l2.1,5c-0.2,0.5-0.5,0.6-0.8,0.6c-0.3,0-0.5-0.1-0.8-0.2c0,0-0.1,0-0.1,0
			c0,0-0.1,0-0.1,0.1l-0.5,1.1c0,0.1,0,0.1,0,0.1c0.5,0.3,1,0.4,1.5,0.4c1.1,0,1.7-0.5,2.2-1.8l2.5-6.5c0,0,0-0.1,0-0.1
			c0,0-0.1,0-0.1,0h-1.5c0,0-0.1,0-0.1,0.1l-1.5,4.4l-1.7-4.4c0,0-0.1-0.1-0.1-0.1L84,57.8L84,57.8L84,57.8z"/>
		<path class="st3" d="M80.8,57.8h-1.4c-0.1,0-0.1,0-0.1,0.1v6.3c0,0.1,0,0.1,0.1,0.1h1.4c0.1,0,0.1,0,0.1-0.1v-6.3
			C80.9,57.9,80.8,57.8,80.8,57.8L80.8,57.8z"/>
		<path class="st3" d="M80.1,54.9c-0.6,0-1,0.5-1,1c0,0.6,0.5,1,1,1s1-0.5,1-1C81.1,55.4,80.6,54.9,80.1,54.9L80.1,54.9z"/>
		<path class="st3" d="M92.8,59.8c-0.6,0-1-0.5-1-1c0-0.6,0.5-1,1-1c0.6,0,1,0.5,1,1C93.8,59.4,93.3,59.8,92.8,59.8L92.8,59.8z
			 M92.8,57.9c-0.5,0-0.9,0.4-0.9,0.9s0.4,0.9,0.9,0.9c0.5,0,0.9-0.4,0.9-0.9C93.7,58.3,93.3,57.9,92.8,57.9L92.8,57.9z M93,58.9
			l0.3,0.4H93L92.8,59h-0.2v0.4h-0.2v-1.1h0.5c0.2,0,0.4,0.1,0.4,0.3C93.2,58.8,93.1,58.9,93,58.9C93,58.9,93,58.9,93,58.9z
			 M92.8,58.4h-0.3v0.3h0.3c0.1,0,0.2-0.1,0.2-0.2C93,58.5,92.9,58.4,92.8,58.4L92.8,58.4z"/>
	</g>
</g>
</svg>
