<svg id="Layer_1" data-name="Layer 1" xmlns="http://www.w3.org/2000/svg" viewBox="0 0 125 40"><defs><style>.cls-1{fill:#fff;}</style></defs><title>Artboard 1</title><g id="Layer_4" data-name="Layer 4"><path class="cls-1" d="M45.24,18.86a2.57,2.57,0,0,1,1.26-2.3,2.77,2.77,0,0,0-2.16-1.21,3,3,0,0,0-1.3.22,6.24,6.24,0,0,1-.95.32,2.56,2.56,0,0,1-.85-.27,2.91,2.91,0,0,0-1.08-.27,2.68,2.68,0,0,0-1.4.4,2.8,2.8,0,0,0-1,1.13A5.17,5.17,0,0,0,37.28,19a7.57,7.57,0,0,0,.36,2.21A6.54,6.54,0,0,0,38.49,23a7.08,7.08,0,0,0,.81,1,1.5,1.5,0,0,0,1,.49,2.19,2.19,0,0,0,.9-.27,2.41,2.41,0,0,1,2,0,2,2,0,0,0,1,.23,1.39,1.39,0,0,0,1-.5,4.48,4.48,0,0,0,.36-.4A3.93,3.93,0,0,0,46,23c.09-.18.23-.36.32-.54s.18-.41.27-.63a.62.62,0,0,0,.09-.27.33.33,0,0,1,.09-.27,3.15,3.15,0,0,1-.77-.54A2.65,2.65,0,0,1,45.24,18.86Z"/><polygon class="cls-1" points="53.7 21.07 53.66 21.07 51.27 15.53 49.43 15.53 49.43 24.44 51.05 24.44 51.05 18.68 51.14 18.68 53.12 23.27 54.24 23.27 56.22 18.68 56.31 18.68 56.31 24.44 57.93 24.44 57.93 15.53 56.09 15.53 53.7 21.07"/><path class="cls-1" d="M43.76,14.36a2.81,2.81,0,0,0,.63-1.71v-.27a1.79,1.79,0,0,0-.9.27,3.47,3.47,0,0,0-.86.72A2.65,2.65,0,0,0,42,15v.27A2.19,2.19,0,0,0,43.76,14.36Z"/><rect class="cls-1" x="76.97" y="15.53" width="1.84" height="8.91"/><path class="cls-1" d="M84.3,17A1.65,1.65,0,0,1,86,18.6v.12h1.75v-.18a3.17,3.17,0,0,0-3.18-3.16h-.24c-2.29,0-3.64,1.53-3.64,4.14v1c0,2.61,1.35,4.1,3.64,4.1a3.11,3.11,0,0,0,3.4-2.78c0-.1,0-.19,0-.28v-.18H86A1.55,1.55,0,0,1,84.52,23H84.3c-1.12,0-1.8-.81-1.8-2.52v-1C82.5,17.78,83.22,17,84.3,17Z"/><path class="cls-1" d="M65,21.15a1.72,1.72,0,1,1-3.42.37,2.29,2.29,0,0,1,0-.37V15.53h-1.8v5.89c0,1.89,1.31,3.2,3.51,3.2s3.51-1.31,3.51-3.2V15.53H65Z"/><path class="cls-1" d="M72.83,19.26,71.52,19c-.76-.18-1.17-.5-1.17-1a1.33,1.33,0,0,1,1.44-1.12A1.36,1.36,0,0,1,73.32,18H75c0-1.58-1.3-2.66-3.24-2.66s-3.24,1-3.24,2.7a2.44,2.44,0,0,0,2.21,2.48l1.3.31c.86.23,1.31.5,1.31,1.08s-.54,1.17-1.58,1.17-1.66-.58-1.71-1.26H68.33c0,1.26.85,2.75,3.37,2.75,2.12,0,3.47-1.08,3.47-2.84A2.51,2.51,0,0,0,72.83,19.26Z"/></g></svg>