<svg id="Layer_1" data-name="Layer 1" xmlns="http://www.w3.org/2000/svg" viewBox="0 0 125 40"><defs><style>.cls-1{fill:#fff;}.cls-2{fill:#24cf5f;}</style></defs><title>Artboard 3</title><g id="icons"><path class="cls-1" d="M44.92,24.14h0a.58.58,0,0,0-.2-.8c-2.46-1.51-5.53-1.86-9.09-1a.58.58,0,0,0-.44.7.57.57,0,0,0,.7.43c3.26-.74,6-.44,8.23.91A.58.58,0,0,0,44.92,24.14Z"/><path class="cls-1" d="M47.36,18.63a.88.88,0,0,0-.3-1.2c-3.48-2.06-9-2.26-12.29-1.25a.87.87,0,1,0,.51,1.67c2.88-.87,7.86-.71,10.88,1.09A.88.88,0,0,0,47.36,18.63Z"/><path class="cls-1" d="M45.83,20.59A13.68,13.68,0,0,0,35.3,19.34a.75.75,0,0,0-.49.92.74.74,0,0,0,.92.48,12.34,12.34,0,0,1,9.33,1.09.75.75,0,0,0,1-.24h0A.67.67,0,0,0,45.83,20.59Z"/><path class="cls-2" d="M40.55,10.63h0A9.37,9.37,0,1,0,50,20,9.3,9.3,0,0,0,40.55,10.63Zm-4.66,12.8a.57.57,0,0,1-.7-.43.58.58,0,0,1,.44-.7c3.56-.82,6.62-.47,9.09,1a.58.58,0,0,1,.2.8h0a.58.58,0,0,1-.8.2C41.92,23,39.15,22.69,35.89,23.43Zm10.18-1.84h0a.75.75,0,0,1-1,.24,12.33,12.33,0,0,0-9.33-1.09.74.74,0,0,1-.92-.48.75.75,0,0,1,.49-.92,13.68,13.68,0,0,1,10.53,1.25A.67.67,0,0,1,46.07,21.59Zm.09-2.65c-3-1.8-8-2-10.88-1.09a.87.87,0,1,1-.51-1.67c3.31-1,8.81-.81,12.29,1.25a.88.88,0,0,1-.9,1.51Z"/><path class="cls-2" d="M56.8,19.28c-1.62-.39-1.9-.66-1.9-1.22s.5-.9,1.25-.9a3.67,3.67,0,0,1,2.22.84l.08,0a.15.15,0,0,0,.07-.05l.78-1.11a.09.09,0,0,0,0-.14,4.72,4.72,0,0,0-3.1-1.08c-1.75,0-3,1.05-3,2.55s1,2.17,2.87,2.61c1.55.36,1.81.66,1.81,1.19s-.53,1-1.38,1a3.73,3.73,0,0,1-2.57-1.06.11.11,0,0,0-.08,0,.1.1,0,0,0-.07,0L52.9,23a.12.12,0,0,0,0,.15,5.28,5.28,0,0,0,3.57,1.37c1.88,0,3.1-1,3.1-2.62,0-1.35-.8-2.09-2.77-2.57Z"/><path class="cls-2" d="M63.83,17.69a2.53,2.53,0,0,0-2,1v-.75a.11.11,0,0,0-.11-.1H60.24a.1.1,0,0,0-.1.1v8.24a.09.09,0,0,0,.1.1h1.45a.1.1,0,0,0,.11-.1v-2.6a2.59,2.59,0,0,0,2,.92,3.12,3.12,0,0,0,3-3.4,3.12,3.12,0,0,0-3-3.39Zm1.37,3.39A1.74,1.74,0,0,1,63.5,23a1.8,1.8,0,0,1-1.74-1.93,1.79,1.79,0,0,1,1.74-1.92,1.76,1.76,0,0,1,1.7,1.92Z"/><path class="cls-2" d="M70.81,17.69a3.4,3.4,0,1,0,3.47,3.39,3.41,3.41,0,0,0-3.47-3.39h0Zm0,5.33A1.84,1.84,0,0,1,69,21.08a1.8,1.8,0,0,1,1.8-1.91,1.84,1.84,0,0,1,1.83,1.94A1.8,1.8,0,0,1,70.81,23Z"/><path class="cls-2" d="M78.45,17.82H76.86V16.19a.11.11,0,0,0-.11-.11H75.3a.11.11,0,0,0-.1.11v1.63h-.7a.1.1,0,0,0-.1.1v1.25a.09.09,0,0,0,.1.1h.7V22.5a1.72,1.72,0,0,0,1.92,2,2.67,2.67,0,0,0,1.36-.34.12.12,0,0,0,0-.09V22.84a.12.12,0,0,0,0-.09.09.09,0,0,0-.1,0,1.83,1.83,0,0,1-.85.2c-.47,0-.67-.21-.67-.68v-3h1.59a.11.11,0,0,0,.11-.11V17.92a.11.11,0,0,0-.11-.1Z"/><path class="cls-2" d="M84,17.82v-.2c0-.58.23-.85.74-.85a2.42,2.42,0,0,1,.81.15.11.11,0,0,0,.1,0,.1.1,0,0,0,0-.09V15.6a.11.11,0,0,0-.07-.1,4.24,4.24,0,0,0-1.21-.17c-1.34,0-2,.75-2,2.18v.3h-.7a.1.1,0,0,0-.1.11v1.25a.1.1,0,0,0,.1.11h.7v5a.11.11,0,0,0,.1.11h1.45a.11.11,0,0,0,.11-.11v-5h1.35l2.07,5c-.23.52-.46.63-.78.63a1.69,1.69,0,0,1-.8-.23.12.12,0,0,0-.08,0,.13.13,0,0,0-.07.06l-.49,1.08a.1.1,0,0,0,0,.13,3,3,0,0,0,1.55.4c1.06,0,1.65-.5,2.18-1.84L91.52,18a.12.12,0,0,0,0-.1.1.1,0,0,0-.09,0H89.91a.1.1,0,0,0-.1.07l-1.54,4.41-1.69-4.42a.12.12,0,0,0-.1-.07Z"/><path class="cls-2" d="M80.78,17.82H79.34a.11.11,0,0,0-.11.1v6.32a.11.11,0,0,0,.11.11h1.44a.11.11,0,0,0,.11-.11V17.92a.11.11,0,0,0-.11-.1Z"/><path class="cls-2" d="M80.07,14.94a1,1,0,1,0,1,1,1,1,0,0,0-1-1Z"/><path class="cls-2" d="M92.76,19.85a1,1,0,1,1,1-1,1,1,0,0,1-1,1Zm0-1.94a.92.92,0,1,0,.91.91.9.9,0,0,0-.91-.91Zm.23,1,.29.4H93L92.77,19h-.22v.37h-.2V18.26h.47c.25,0,.42.13.42.34a.33.33,0,0,1-.25.33Zm-.17-.48h-.27v.34h.27c.13,0,.21-.07.21-.17s-.08-.17-.21-.17Z"/></g></svg>